<svg version="1.2" xmlns="http://www.w3.org/2000/svg" viewBox="0 0 239 237" width="239" height="237">
	<title>New Project</title>
	<style>
		.s0 { fill: #4e2994 } 
		.s1 { fill: #ffffff } 
	</style>
	<g id="form-logo">
		<path id="Path 0" class="s0" d="m0 118v120h240v-240h-240z"/>
		<path id="Path 1" class="s1" d="m98.8 81.5c-12.5 7-17.3 10.3-18.8 12.8-1.8 2.9-2 5-2 23.7 0 18 0.2 20.9 1.8 23.5 1.3 2.1 6.9 5.9 18.8 12.7 14.4 8.3 17.6 9.7 21.4 9.8 3.9 0 6.9-1.4 21.3-9.5 12.4-7.1 17.2-10.3 18.7-12.8 1.8-2.9 2-5 2-23.7 0-18-0.2-20.9-1.8-23.5-1.3-2.1-6.9-5.9-18.8-12.7-14.4-8.3-17.6-9.7-21.4-9.8-3.9 0-6.9 1.3-21.2 9.5z"/>
		<path id="Path 2" class="s0" d="m104.5 89.6c-8.3 4.7-15.6 9.1-16.3 9.7-1 0.9-1.3 5.6-1.3 18.7 0 15.5 0.2 17.7 1.8 19.1 1 0.9 8.2 5.3 16.1 9.7 7.8 4.5 14.5 8.2 14.9 8.2 0.5 0 6.9-3.5 14.3-7.7 7.4-4.2 14.7-8.4 16.3-9.5l2.7-1.8c0.1-33.5-0.1-35.7-1.7-37.1-1-0.9-8.2-5.3-16.1-9.7-7.8-4.5-14.5-8.2-15-8.2-0.4 0-7.5 3.9-15.7 8.6z"/>
	</g>
</svg>